<?xml version="1.0" encoding="UTF-8" standalone="no"?>
<!-- Created with Inkscape (http://www.inkscape.org/) -->

<svg
   xmlns:dc="http://purl.org/dc/elements/1.1/"
   xmlns:cc="http://creativecommons.org/ns#"
   xmlns:rdf="http://www.w3.org/1999/02/22-rdf-syntax-ns#"
   xmlns:svg="http://www.w3.org/2000/svg"
   xmlns="http://www.w3.org/2000/svg"
   xmlns:sodipodi="http://sodipodi.sourceforge.net/DTD/sodipodi-0.dtd"
   xmlns:inkscape="http://www.inkscape.org/namespaces/inkscape"
   width="88.979378mm"
   height="30.162502mm"
   viewBox="0 0 315.28126 106.87501"
   id="svg2"
   version="1.1"
   inkscape:version="0.91 r13725"
   sodipodi:docname="icon stdlib.svg"
   inkscape:export-filename="E:\root\writings\books\2017 Programming basics, using C++ for Windows desktop\book\figures\general\icon stdlib\icon stdlib.png"
   inkscape:export-xdpi="90"
   inkscape:export-ydpi="90">
  <defs
     id="defs4">
    <filter
       style="color-interpolation-filters:sRGB"
       inkscape:label="Drop Shadow"
       id="filter8272">
      <feFlood
         flood-opacity="0.498039"
         flood-color="rgb(0,0,0)"
         result="flood"
         id="feFlood8274" />
      <feComposite
         in="flood"
         in2="SourceGraphic"
         operator="in"
         result="composite1"
         id="feComposite8276" />
      <feGaussianBlur
         in="composite1"
         stdDeviation="3.5"
         result="blur"
         id="feGaussianBlur8278" />
      <feOffset
         dx="3.5"
         dy="3.5"
         result="offset"
         id="feOffset8280" />
      <feComposite
         in="offset"
         in2="offset"
         operator="atop"
         result="composite2"
         id="feComposite8282" />
    </filter>
    <filter
       style="color-interpolation-filters:sRGB"
       inkscape:label="Drop Shadow"
       id="filter8284">
      <feFlood
         flood-opacity="0.498039"
         flood-color="rgb(0,0,0)"
         result="flood"
         id="feFlood8286" />
      <feComposite
         in="flood"
         in2="SourceGraphic"
         operator="in"
         result="composite1"
         id="feComposite8288" />
      <feGaussianBlur
         in="composite1"
         stdDeviation="3.5"
         result="blur"
         id="feGaussianBlur8290" />
      <feOffset
         dx="3.5"
         dy="3.5"
         result="offset"
         id="feOffset8292" />
      <feComposite
         in="offset"
         in2="offset"
         operator="atop"
         result="composite2"
         id="feComposite8294" />
    </filter>
    <filter
       style="color-interpolation-filters:sRGB"
       inkscape:label="Drop Shadow"
       id="filter8296">
      <feFlood
         flood-opacity="0.498039"
         flood-color="rgb(0,0,0)"
         result="flood"
         id="feFlood8298" />
      <feComposite
         in="flood"
         in2="SourceGraphic"
         operator="in"
         result="composite1"
         id="feComposite8300" />
      <feGaussianBlur
         in="composite1"
         stdDeviation="3.5"
         result="blur"
         id="feGaussianBlur8302" />
      <feOffset
         dx="3.5"
         dy="3.5"
         result="offset"
         id="feOffset8304" />
      <feComposite
         in="offset"
         in2="offset"
         operator="atop"
         result="composite2"
         id="feComposite8306" />
    </filter>
    <filter
       style="color-interpolation-filters:sRGB"
       inkscape:label="Drop Shadow"
       id="filter8308">
      <feFlood
         flood-opacity="0.498039"
         flood-color="rgb(0,0,0)"
         result="flood"
         id="feFlood8310" />
      <feComposite
         in="flood"
         in2="SourceGraphic"
         operator="in"
         result="composite1"
         id="feComposite8312" />
      <feGaussianBlur
         in="composite1"
         stdDeviation="3.5"
         result="blur"
         id="feGaussianBlur8314" />
      <feOffset
         dx="3.5"
         dy="3.5"
         result="offset"
         id="feOffset8316" />
      <feComposite
         in="offset"
         in2="offset"
         operator="atop"
         result="composite2"
         id="feComposite8318" />
    </filter>
    <filter
       style="color-interpolation-filters:sRGB"
       inkscape:label="Drop Shadow"
       id="filter8320">
      <feFlood
         flood-opacity="0.498039"
         flood-color="rgb(0,0,0)"
         result="flood"
         id="feFlood8322" />
      <feComposite
         in="flood"
         in2="SourceGraphic"
         operator="in"
         result="composite1"
         id="feComposite8324" />
      <feGaussianBlur
         in="composite1"
         stdDeviation="3.5"
         result="blur"
         id="feGaussianBlur8326" />
      <feOffset
         dx="3.5"
         dy="3.5"
         result="offset"
         id="feOffset8328" />
      <feComposite
         in="offset"
         in2="offset"
         operator="atop"
         result="composite2"
         id="feComposite8330" />
    </filter>
    <filter
       style="color-interpolation-filters:sRGB"
       inkscape:label="Drop Shadow"
       id="filter8332">
      <feFlood
         flood-opacity="0.498039"
         flood-color="rgb(0,0,0)"
         result="flood"
         id="feFlood8334" />
      <feComposite
         in="flood"
         in2="SourceGraphic"
         operator="in"
         result="composite1"
         id="feComposite8336" />
      <feGaussianBlur
         in="composite1"
         stdDeviation="3.5"
         result="blur"
         id="feGaussianBlur8338" />
      <feOffset
         dx="3.5"
         dy="3.5"
         result="offset"
         id="feOffset8340" />
      <feComposite
         in="offset"
         in2="offset"
         operator="atop"
         result="composite2"
         id="feComposite8342" />
    </filter>
  </defs>
  <sodipodi:namedview
     id="base"
     pagecolor="#ffffff"
     bordercolor="#666666"
     borderopacity="1.0"
     inkscape:pageopacity="1"
     inkscape:pageshadow="2"
     inkscape:zoom="0.98994949"
     inkscape:cx="81.703816"
     inkscape:cy="91.749897"
     inkscape:document-units="px"
     inkscape:current-layer="text4133"
     showgrid="false"
     inkscape:window-width="1920"
     inkscape:window-height="1057"
     inkscape:window-x="-8"
     inkscape:window-y="-8"
     inkscape:window-maximized="1"
     fit-margin-top="0"
     fit-margin-left="0"
     fit-margin-right="0"
     fit-margin-bottom="0" />
  <metadata
     id="metadata7">
    <rdf:RDF>
      <cc:Work
         rdf:about="">
        <dc:format>image/svg+xml</dc:format>
        <dc:type
           rdf:resource="http://purl.org/dc/dcmitype/StillImage" />
        <dc:title></dc:title>
      </cc:Work>
    </rdf:RDF>
  </metadata>
  <g
     inkscape:label="Layer 1"
     inkscape:groupmode="layer"
     id="layer1"
     transform="translate(-212.63124,-332.71136)">
    <g
       style="font-style:normal;font-variant:normal;font-weight:normal;font-stretch:normal;font-size:120px;line-height:125%;font-family:'Book Antiqua';-inkscape-font-specification:'Book Antiqua, Normal';text-align:start;letter-spacing:0px;word-spacing:0px;writing-mode:lr-tb;text-anchor:start;fill:#000000;fill-opacity:1;stroke:none;stroke-width:1px;stroke-linecap:butt;stroke-linejoin:miter;stroke-opacity:1"
       id="text4133"
       transform="translate(24.243661,37.375644)">
      <path
         d="m 193.0282,390.02322 q 2.10937,-8.08593 2.63672,-15.70312 l 3.63281,0 0.17578,5.68359 q 2.51953,3.04688 6.67969,5.03907 4.16015,1.93359 8.4375,1.93359 5.39062,0 8.14453,-2.46094 2.8125,-2.46094 2.8125,-6.5039 0,-3.10547 -1.875,-5.15625 -1.875,-2.05079 -6.38672,-2.98829 l -5.03906,-1.05468 q -7.08985,-1.46485 -9.66797,-3.86719 -3.92578,-3.63281 -3.92578,-9.49219 0,-6.97265 4.80469,-11.01562 11.36718,-9.66797 22.14843,-9.66797 3.39844,0 6.85547,0.8789 3.45703,0.82032 6.97266,2.57813 -1.46485,6.21094 -2.34375,14.12109 l -3.51563,0 -0.64453,-5.80078 q -3.51562,-3.04687 -6.73828,-4.21875 -3.22266,-1.23047 -6.62109,-1.23047 -4.33594,0 -6.97266,2.40235 -2.57812,2.34375 -2.57812,5.97656 0,3.57422 2.51953,5.68359 2.46093,2.16797 9.43359,3.33985 l 3.28125,0.52734 q 6.15234,1.05469 9.25781,4.45313 3.04688,3.39843 3.04688,8.55468 0,5.27344 -3.63281,9.4336 -3.63282,4.16015 -10.13672,8.02734 -6.44532,3.80859 -14.64844,3.80859 -3.86719,0 -6.91406,-0.58593 -2.98828,-0.58594 -9.19922,-2.69532 z"
         style="font-style:italic;font-variant:normal;font-weight:bold;font-stretch:normal;font-size:120px;font-family:'Book Antiqua';-inkscape-font-specification:'Book Antiqua Bold Italic';fill:#008066;filter:url(#filter8332)"
         id="path4156"
         inkscape:connector-curvature="0" />
      <path
         d="m 284.43445,375.90213 1.40625,3.28125 -8.78906,6.44531 q -6.79688,4.62891 -10.3711,6.15235 -3.57422,1.52343 -5.91797,1.52343 -2.98828,0 -4.80468,-1.99218 -1.81641,-1.99219 -1.81641,-5.625 0,-1.9336 0.46875,-4.51172 0.52734,-2.57813 4.92187,-21.79688 2.8711,-12.59765 3.45704,-15.99609 l -13.00782,0 0.82032,-3.22266 q 5.625,-1.23047 13.82812,-4.04297 2.10938,-11.60156 2.16797,-16.46484 6.26953,-1.64062 14.76562,-4.6875 l 1.23047,1.40625 q -2.98828,10.3125 -5.50781,20.74219 l 6.03516,0 q 6.5625,0 10.2539,-0.46875 l 0.46875,0.46875 -0.82031,2.98828 q -0.58594,1.99219 -0.76172,3.75 -5.15625,-0.46875 -10.2539,-0.46875 l -6.26954,0 q -1.99218,6.79687 -5.21484,22.20703 -2.51953,11.95313 -2.51953,14.76563 0,1.52343 0.82031,2.40234 0.82031,0.82031 2.05078,0.82031 1.75782,0 4.33594,-1.40625 4.98047,-2.69531 9.02344,-6.26953 z"
         style="font-style:italic;font-variant:normal;font-weight:bold;font-stretch:normal;font-size:120px;font-family:'Book Antiqua';-inkscape-font-specification:'Book Antiqua Bold Italic';fill:#008066;filter:url(#filter8320)"
         id="path4158"
         inkscape:connector-curvature="0" />
      <path
         d="m 352.93054,377.83572 1.05469,3.51563 -10.72266,7.85156 q -3.86718,2.51953 -6.5625,3.45703 -1.75781,0.64453 -3.22265,0.64453 -2.05078,0 -3.39844,-1.58203 -1.34766,-1.58203 -1.34766,-4.27734 0,-1.58203 0.29297,-3.16406 1.34766,-6.73828 2.63672,-11.54297 l 2.57813,-9.4336 q -7.44141,14.1211 -18.16407,23.08594 -8.20312,6.91406 -13.30078,6.91406 -3.22265,0 -5.33203,-2.92968 -2.05078,-2.92969 -2.05078,-9.49219 0,-6.73828 2.22656,-15.23438 2.22656,-8.49609 5.74219,-14.70703 1.99219,-3.57422 4.98047,-5.74218 8.96484,-6.5625 14.41406,-8.90625 3.86719,-1.69922 8.4375,-1.69922 2.98828,0 7.61719,1.28906 l 1.99219,-12.77344 q 0.99609,-6.32812 0.99609,-7.20703 0,-1.40625 -1.11328,-2.10937 -1.11328,-0.70313 -4.45313,-0.70313 -1.93359,0 -4.6289,0.0586 l 0.70312,-3.51562 q 10.78125,-0.23438 24.60938,-5.39063 l 1.58203,1.11329 q -1.99219,7.38281 -4.27735,18.10546 l -10.07812,48.04688 q -1.40625,6.67969 -1.40625,9.84375 0,1.99219 1.28906,1.99219 1.58203,0 8.90625,-5.50782 z m -15.64453,-34.92187 q -4.39453,-2.57813 -10.07812,-2.57813 -5.09766,0 -7.14844,1.99219 -2.92969,2.8125 -6.79688,15.41016 -3.86718,12.53906 -3.86718,22.03125 0,1.93359 0.64453,2.8125 0.70312,0.8789 1.75781,0.8789 1.23047,0 3.28125,-1.28906 3.51562,-2.10937 7.61719,-7.26562 5.44922,-6.79688 8.78906,-13.65235 3.33984,-6.85547 4.6875,-13.18359 l 1.11328,-5.15625 z"
         style="font-style:italic;font-variant:normal;font-weight:bold;font-stretch:normal;font-size:120px;font-family:'Book Antiqua';-inkscape-font-specification:'Book Antiqua Bold Italic';fill:#008066;filter:url(#filter8308)"
         id="path4160"
         inkscape:connector-curvature="0" />
      <path
         d="m 392.18835,377.48416 1.75782,3.16406 -10.48828,7.14844 q -6.26954,3.8086 -8.61329,4.62891 -2.34375,0.8789 -3.86718,0.8789 -1.81641,0 -2.98828,-1.64062 -1.17188,-1.64063 -1.17188,-5.09766 0,-5.15625 2.05078,-13.59375 l 7.5586,-31.40625 q 1.8164,-7.32422 3.86718,-18.16406 1.05469,-6.62109 1.05469,-7.79297 0,-1.17187 -1.05469,-1.69922 -1.46484,-0.76172 -5.50781,-0.76172 l -3.39844,0 0.52735,-3.51562 q 12.65625,-1.40625 24.25781,-5.39063 l 1.40625,1.28907 -4.16016,16.99218 -8.3789,35.625 q -4.16016,17.8711 -4.16016,22.20704 0,1.46484 0.41016,2.10937 0.46875,0.64453 1.17187,0.64453 0.87891,0 2.57813,-0.99609 4.39453,-2.34375 7.14843,-4.62891 z"
         style="font-style:italic;font-variant:normal;font-weight:bold;font-stretch:normal;font-size:120px;font-family:'Book Antiqua';-inkscape-font-specification:'Book Antiqua Bold Italic';fill:#008066;filter:url(#filter8296)"
         id="path4162"
         inkscape:connector-curvature="0" />
      <path
         d="m 421.36804,317.30838 q 0,-4.45312 2.34375,-7.03125 2.34375,-2.57812 5.97656,-2.57812 2.8711,0 4.62891,1.8164 1.81641,1.75781 1.81641,4.6875 0,4.10156 -2.34375,6.73828 -2.28516,2.63672 -5.91797,2.63672 -2.92969,0 -4.7461,-1.75781 -1.75781,-1.81641 -1.75781,-4.51172 z m -18.6914,35.27344 -1.40625,-3.16406 q 14.17968,-10.3125 17.98828,-12.2461 4.92187,-2.46094 7.38281,-2.46094 1.58203,0 2.63672,1.23047 1.05469,1.17188 1.05469,3.33985 0,4.16015 -3.8086,17.10937 l -1.875,6.32813 q -4.39453,14.64843 -4.39453,18.51562 0,1.99219 1.64063,1.99219 1.52343,0 10.01953,-5.625 l 1.58203,3.10547 -12.12891,8.08594 q -4.86328,3.04687 -7.32422,3.86718 -1.69922,0.64453 -3.16406,0.64453 -2.22656,0 -3.45703,-1.52343 -1.17188,-1.46485 -1.17188,-4.80469 0,-4.39453 1.875,-11.25 l 3.92579,-13.94531 q 2.92968,-10.48828 2.92968,-13.65235 0,-1.52343 -1.34765,-1.52343 -0.9375,0 -2.8125,0.9375 -4.57032,2.34375 -8.14453,5.03906 z"
         style="font-style:italic;font-variant:normal;font-weight:bold;font-stretch:normal;font-size:120px;font-family:'Book Antiqua';-inkscape-font-specification:'Book Antiqua Bold Italic';fill:#008066;filter:url(#filter8284)"
         id="path4164"
         inkscape:connector-curvature="0" />
      <path
         d="m 445.2157,313.14822 0.82031,-3.51562 q 16.93359,-2.46094 23.78906,-5.39063 l 1.34766,1.11329 q -0.46875,1.875 -2.34375,10.42968 l -8.32031,38.08594 q 5.33203,-7.20703 10.13672,-11.13281 4.80468,-3.98438 9.96093,-5.97656 5.15625,-1.99219 9.4336,-1.99219 3.6914,0 5.625,2.8125 2.57812,3.80859 2.57812,11.13281 0,11.48438 -4.92187,22.03125 -3.92578,8.37891 -12.30469,14.23828 -11.83594,8.32031 -22.20703,8.32031 -7.5,0 -11.19141,-3.39843 -3.63281,-3.16407 -3.63281,-9.72657 0,-3.22265 1.52344,-11.77734 l 4.80468,-25.95703 q 4.45313,-23.84766 4.45313,-26.66016 0,-1.40625 -1.05469,-1.99218 -0.99609,-0.64454 -4.16015,-0.64454 l -4.33594,0 z m 11.95312,64.51172 q 0,4.80469 2.34375,7.32422 2.34375,2.51953 6.09375,2.51953 3.57422,0 7.03125,-3.10547 4.62891,-4.16015 8.08594,-13.82812 3.51563,-9.66797 3.51563,-18.33984 0,-4.86329 -1.40625,-6.97266 -1.34766,-2.16797 -3.28125,-2.16797 -3.75,0 -9.375,4.57031 -5.56641,4.51172 -9.31641,12.89063 -3.69141,8.3789 -3.69141,17.10937 z"
         style="font-style:italic;font-variant:normal;font-weight:bold;font-stretch:normal;font-size:120px;font-family:'Book Antiqua';-inkscape-font-specification:'Book Antiqua Bold Italic';fill:#008066;filter:url(#filter8272)"
         id="path4166"
         inkscape:connector-curvature="0" />
    </g>
  </g>
</svg>
